<mxfile host="drawio-plugin" modified="2024-02-21T20:02:33.165Z" agent="5.0 (X11; Linux x86_64) AppleWebKit/537.36 (KHTML, like Gecko) Chrome/111.0.0.0 Safari/537.36" etag="vdOsHHRfP5rNu6I6g6xJ" version="20.5.3" type="embed"><diagram name="Seite-1" id="-2VjJTFV00PebQVn-Hf1"><mxGraphModel dx="1441" dy="1009" grid="1" gridSize="10" guides="1" tooltips="1" connect="1" arrows="1" fold="1" page="1" pageScale="1" pageWidth="827" pageHeight="1169" math="0" shadow="0"><root><mxCell id="0"/><mxCell id="1" parent="0"/><mxCell id="204" value="" style="group" vertex="1" connectable="0" parent="1"><mxGeometry x="-580" y="30" width="480" height="440" as="geometry"/></mxCell><mxCell id="174" value="" style="shape=folder;fontStyle=1;spacingTop=10;tabWidth=100;tabHeight=30;tabPosition=left;html=1;" parent="204" vertex="1"><mxGeometry width="480" height="440" as="geometry"/></mxCell><mxCell id="175" value="BusFactory" style="shape=module;align=left;spacingLeft=20;align=center;verticalAlign=top;" parent="204" vertex="1"><mxGeometry x="360" y="64" width="100" height="50" as="geometry"/></mxCell><mxCell id="176" value="BusInterface" style="shape=module;align=left;spacingLeft=20;align=center;verticalAlign=top;" parent="204" vertex="1"><mxGeometry x="360" y="236" width="100" height="50" as="geometry"/></mxCell><mxCell id="180" style="edgeStyle=orthogonalEdgeStyle;rounded=0;orthogonalLoop=1;jettySize=auto;html=1;dashed=1;endArrow=block;endFill=0;" parent="204" source="177" target="176" edge="1"><mxGeometry relative="1" as="geometry"/></mxCell><mxCell id="181" value="implements" style="edgeLabel;html=1;align=center;verticalAlign=middle;resizable=0;points=[];" parent="180" vertex="1" connectable="0"><mxGeometry x="0.2041" y="-4" relative="1" as="geometry"><mxPoint x="4" y="-4" as="offset"/></mxGeometry></mxCell><mxCell id="177" value="Bus" style="shape=module;align=left;spacingLeft=20;align=center;verticalAlign=top;" parent="204" vertex="1"><mxGeometry x="360" y="150" width="100" height="50" as="geometry"/></mxCell><mxCell id="178" style="edgeStyle=orthogonalEdgeStyle;rounded=0;orthogonalLoop=1;jettySize=auto;html=1;endArrow=open;endFill=0;" parent="204" source="175" target="177" edge="1"><mxGeometry relative="1" as="geometry"/></mxCell><mxCell id="179" value="creates" style="edgeLabel;html=1;align=center;verticalAlign=middle;resizable=0;points=[];" parent="178" vertex="1" connectable="0"><mxGeometry x="-0.1688" y="1" relative="1" as="geometry"><mxPoint x="-1" y="-2" as="offset"/></mxGeometry></mxCell><mxCell id="182" value="Encoding" style="shape=module;align=left;spacingLeft=20;align=center;verticalAlign=top;" vertex="1" parent="204"><mxGeometry x="200" y="150" width="100" height="50" as="geometry"/></mxCell><mxCell id="183" style="edgeStyle=orthogonalEdgeStyle;rounded=0;orthogonalLoop=1;jettySize=auto;html=1;entryX=1;entryY=0.5;entryDx=0;entryDy=0;endArrow=open;endFill=0;" edge="1" parent="204" source="177" target="182"><mxGeometry relative="1" as="geometry"/></mxCell><mxCell id="184" value="uses" style="edgeLabel;html=1;align=center;verticalAlign=middle;resizable=0;points=[];" vertex="1" connectable="0" parent="183"><mxGeometry x="0.26" relative="1" as="geometry"><mxPoint x="8" y="-5" as="offset"/></mxGeometry></mxCell><mxCell id="185" value="Encoding&#10;Protocol" style="shape=module;align=left;spacingLeft=20;align=center;verticalAlign=top;" vertex="1" parent="204"><mxGeometry x="200" y="64" width="100" height="50" as="geometry"/></mxCell><mxCell id="186" style="edgeStyle=orthogonalEdgeStyle;rounded=0;orthogonalLoop=1;jettySize=auto;html=1;dashed=1;endArrow=block;endFill=0;" edge="1" parent="204" source="182" target="185"><mxGeometry relative="1" as="geometry"/></mxCell><mxCell id="187" value="implements" style="edgeLabel;html=1;align=center;verticalAlign=top;resizable=0;points=[];" vertex="1" connectable="0" parent="186"><mxGeometry x="-0.7273" relative="1" as="geometry"><mxPoint y="-24" as="offset"/></mxGeometry></mxCell><mxCell id="188" value="BusPlugin" style="shape=module;align=left;spacingLeft=20;align=center;verticalAlign=top;" vertex="1" parent="204"><mxGeometry x="200" y="236" width="100" height="50" as="geometry"/></mxCell><mxCell id="189" style="edgeStyle=orthogonalEdgeStyle;rounded=0;orthogonalLoop=1;jettySize=auto;html=1;endArrow=open;endFill=0;" edge="1" parent="204" source="177" target="188"><mxGeometry relative="1" as="geometry"><Array as="points"><mxPoint x="330" y="175"/><mxPoint x="330" y="220"/><mxPoint x="250" y="220"/></Array></mxGeometry></mxCell><mxCell id="191" value="BusPlugin&#10;Interface" style="shape=module;align=left;spacingLeft=20;align=center;verticalAlign=top;" vertex="1" parent="204"><mxGeometry x="200" y="320" width="100" height="50" as="geometry"/></mxCell><mxCell id="192" style="edgeStyle=orthogonalEdgeStyle;rounded=0;orthogonalLoop=1;jettySize=auto;html=1;endArrow=open;endFill=0;" edge="1" parent="204" source="188" target="191"><mxGeometry relative="1" as="geometry"/></mxCell><mxCell id="193" value="implements" style="edgeLabel;html=1;align=center;verticalAlign=middle;resizable=0;points=[];" vertex="1" connectable="0" parent="192"><mxGeometry x="-0.7565" relative="1" as="geometry"><mxPoint y="8" as="offset"/></mxGeometry></mxCell><mxCell id="195" style="edgeStyle=orthogonalEdgeStyle;rounded=0;orthogonalLoop=1;jettySize=auto;html=1;endArrow=open;endFill=0;" edge="1" parent="204" source="194" target="188"><mxGeometry relative="1" as="geometry"/></mxCell><mxCell id="196" value="creates" style="edgeLabel;html=1;align=center;verticalAlign=middle;resizable=0;points=[];" vertex="1" connectable="0" parent="195"><mxGeometry x="-0.7571" y="1" relative="1" as="geometry"><mxPoint x="13" y="1" as="offset"/></mxGeometry></mxCell><mxCell id="194" value="BusPlugin&#10;Factory" style="shape=module;align=left;spacingLeft=20;align=center;verticalAlign=top;" vertex="1" parent="204"><mxGeometry x="40" y="236" width="100" height="50" as="geometry"/></mxCell><mxCell id="197" style="edgeStyle=orthogonalEdgeStyle;rounded=0;orthogonalLoop=1;jettySize=auto;html=1;endArrow=open;endFill=0;" edge="1" parent="204" source="175" target="194"><mxGeometry relative="1" as="geometry"><Array as="points"><mxPoint x="410" y="50"/><mxPoint x="90" y="50"/></Array></mxGeometry></mxCell><mxCell id="198" value="uses" style="edgeLabel;html=1;align=center;verticalAlign=middle;resizable=0;points=[];" vertex="1" connectable="0" parent="197"><mxGeometry x="0.7687" relative="1" as="geometry"><mxPoint as="offset"/></mxGeometry></mxCell><mxCell id="199" value="BusConfig" style="shape=module;align=left;spacingLeft=20;align=center;verticalAlign=top;" vertex="1" parent="204"><mxGeometry x="40" y="320" width="100" height="50" as="geometry"/></mxCell><mxCell id="202" style="edgeStyle=orthogonalEdgeStyle;rounded=0;orthogonalLoop=1;jettySize=auto;html=1;endArrow=diamondThin;endFill=1;entryX=1;entryY=0.5;entryDx=0;entryDy=0;" edge="1" parent="204" source="188" target="199"><mxGeometry relative="1" as="geometry"><Array as="points"><mxPoint x="220" y="310"/><mxPoint x="160" y="310"/><mxPoint x="160" y="345"/></Array></mxGeometry></mxCell><mxCell id="200" style="edgeStyle=orthogonalEdgeStyle;rounded=0;orthogonalLoop=1;jettySize=auto;html=1;endArrow=open;endFill=0;" edge="1" parent="204" source="194" target="199"><mxGeometry relative="1" as="geometry"/></mxCell><mxCell id="201" value="uses" style="edgeLabel;html=1;align=center;verticalAlign=middle;resizable=0;points=[];" vertex="1" connectable="0" parent="200"><mxGeometry x="-0.8049" relative="1" as="geometry"><mxPoint y="10" as="offset"/></mxGeometry></mxCell><mxCell id="203" value="BusTransactions" style="text;html=1;strokeColor=none;fillColor=none;align=center;verticalAlign=middle;whiteSpace=wrap;rounded=0;" vertex="1" parent="204"><mxGeometry width="100" height="30" as="geometry"/></mxCell></root></mxGraphModel></diagram></mxfile>